<?xml version="1.0" encoding="UTF-8"?>
<svg xmlns="http://www.w3.org/2000/svg" viewBox="0 0 1600 1067" width="1600" height="1067" preserveAspectRatio="xMidYMid slice">
<title>Intelligence First — AI is only as good as the data it's built on</title>
<desc>Editorial illustration showing fragmented claims and EHR data on the left, a diagonal data substrate arrow bridging to a structured panel on the right featuring radiology and AlphaFold imagery, on a deep navy background.</desc>

<defs>
<pattern id="grid" width="40" height="40" patternUnits="userSpaceOnUse">
<path d="M 40 0 L 0 0 0 40" fill="none" stroke="#1a3a5c" stroke-width="0.5" opacity="0.4"/>
</pattern>
<pattern id="dots" width="40" height="40" patternUnits="userSpaceOnUse">
<circle cx="20" cy="20" r="1.2" fill="#20B2AA" opacity="0.25"/>
</pattern>
<linearGradient id="arrowGrad" x1="0%" y1="100%" x2="100%" y2="0%">
<stop offset="0%" stop-color="#e87a5d" stop-opacity="0.85"/>
<stop offset="100%" stop-color="#f0a080" stop-opacity="1"/>
</linearGradient>
<clipPath id="ctClip">
<rect x="850" y="540" width="340" height="280" rx="4"/>
</clipPath>
</defs>

<rect width="1600" height="1067" fill="#0B1829"/>
<rect width="1600" height="1067" fill="url(#grid)"/>
<rect width="1600" height="1067" fill="url(#dots)"/>

<g opacity="0.15">
<line x1="200" y1="700" x2="500" y2="650" stroke="#20B2AA" stroke-width="0.5"/>
<line x1="500" y1="650" x2="780" y2="500" stroke="#20B2AA" stroke-width="0.5"/>
<line x1="780" y1="500" x2="1100" y2="380" stroke="#20B2AA" stroke-width="0.5"/>
<circle cx="200" cy="700" r="3" fill="#20B2AA"/>
<circle cx="500" cy="650" r="3" fill="#20B2AA"/>
<circle cx="780" cy="500" r="3" fill="#20B2AA"/>
<circle cx="1100" cy="380" r="3" fill="#20B2AA"/>
<circle cx="350" cy="800" r="2" fill="#20B2AA"/>
<circle cx="650" cy="780" r="2" fill="#20B2AA"/>
<circle cx="900" cy="700" r="2" fill="#20B2AA"/>
</g>

<g transform="translate(80,90) rotate(-8)">
<rect width="280" height="180" fill="#20B2AA" opacity="0.85" rx="2"/>
<rect x="14" y="18" width="120" height="10" fill="#0B1829" opacity="0.4"/>
<rect x="14" y="36" width="180" height="6" fill="#0B1829" opacity="0.3"/>
<rect x="14" y="50" width="160" height="6" fill="#0B1829" opacity="0.3"/>
<rect x="14" y="64" width="140" height="6" fill="#0B1829" opacity="0.3"/>
<rect x="14" y="80" width="200" height="6" fill="#0B1829" opacity="0.3"/>
<rect x="14" y="94" width="170" height="6" fill="#0B1829" opacity="0.3"/>
<text x="14" y="125" font-family="ui-monospace,monospace" font-size="11" fill="#0B1829" font-weight="500" opacity="0.7">CLAIM • ICD-10 Z00.0</text>
<rect x="14" y="140" width="80" height="20" fill="#e05252" opacity="0.7"/>
<text x="22" y="154" font-family="ui-monospace,monospace" font-size="9" fill="#fff" font-weight="500">DENIED</text>
<line x1="180" y1="20" x2="240" y2="160" stroke="#e05252" stroke-width="2" opacity="0.6"/>
</g>

<g transform="translate(310,140) rotate(6)">
<rect width="240" height="160" fill="#e87a5d" opacity="0.78" rx="2"/>
<rect x="12" y="16" width="100" height="9" fill="#0B1829" opacity="0.45"/>
<rect x="12" y="32" width="160" height="5" fill="#0B1829" opacity="0.3"/>
<rect x="12" y="44" width="140" height="5" fill="#0B1829" opacity="0.3"/>
<rect x="12" y="56" width="180" height="5" fill="#0B1829" opacity="0.3"/>
<rect x="12" y="68" width="120" height="5" fill="#0B1829" opacity="0.3"/>
<text x="12" y="100" font-family="ui-monospace,monospace" font-size="11" fill="#0B1829" font-weight="500" opacity="0.7">EHR • SNAPSHOT</text>
<rect x="12" y="115" width="60" height="22" fill="none" stroke="#0B1829" stroke-width="1.5" stroke-dasharray="3,3" opacity="0.6"/>
<text x="20" y="131" font-family="ui-monospace,monospace" font-size="10" fill="#0B1829" font-weight="500" opacity="0.7">15 MIN</text>
</g>

<g transform="translate(40,310) rotate(4)">
<rect width="220" height="150" fill="#f5e6d8" opacity="0.92" rx="2"/>
<rect x="12" y="14" width="90" height="8" fill="#0B1829" opacity="0.5"/>
<rect x="12" y="30" width="150" height="5" fill="#0B1829" opacity="0.3"/>
<rect x="12" y="42" width="130" height="5" fill="#0B1829" opacity="0.3"/>
<rect x="12" y="54" width="170" height="5" fill="#0B1829" opacity="0.3"/>
<rect x="12" y="66" width="110" height="5" fill="#0B1829" opacity="0.3"/>
<text x="12" y="98" font-family="ui-monospace,monospace" font-size="10" fill="#0B1829" font-weight="500" opacity="0.6">NO BASELINE</text>
<line x1="40" y1="115" x2="180" y2="135" stroke="#e05252" stroke-width="1.5" opacity="0.5"/>
<circle cx="200" cy="20" r="14" fill="#7a4f8c" opacity="0.4"/>
</g>

<g transform="translate(280,410) rotate(-4)">
<rect width="200" height="140" fill="#20B2AA" opacity="0.7" rx="2"/>
<rect x="12" y="14" width="90" height="8" fill="#0B1829" opacity="0.5"/>
<rect x="12" y="30" width="150" height="5" fill="#0B1829" opacity="0.3"/>
<rect x="12" y="42" width="130" height="5" fill="#0B1829" opacity="0.3"/>
<rect x="12" y="54" width="170" height="5" fill="#0B1829" opacity="0.3"/>
<text x="12" y="90" font-family="ui-monospace,monospace" font-size="10" fill="#0B1829" font-weight="500" opacity="0.65">ROSTER MISMATCH</text>
<line x1="20" y1="105" x2="180" y2="125" stroke="#e05252" stroke-width="1.5" opacity="0.6"/>
</g>

<g transform="translate(120,540) rotate(7)">
<rect width="180" height="120" fill="#e87a5d" opacity="0.65" rx="2"/>
<rect x="10" y="12" width="80" height="7" fill="#0B1829" opacity="0.5"/>
<rect x="10" y="26" width="140" height="4" fill="#0B1829" opacity="0.3"/>
<rect x="10" y="36" width="120" height="4" fill="#0B1829" opacity="0.3"/>
<rect x="10" y="46" width="150" height="4" fill="#0B1829" opacity="0.3"/>
<text x="10" y="78" font-family="ui-monospace,monospace" font-size="9" fill="#0B1829" font-weight="500" opacity="0.6">SDoH • UNCAPTURED</text>
</g>

<g transform="translate(80,690) rotate(-3)">
<rect width="160" height="110" fill="#f5e6d8" opacity="0.85" rx="2"/>
<rect x="10" y="12" width="70" height="7" fill="#0B1829" opacity="0.5"/>
<rect x="10" y="26" width="120" height="4" fill="#0B1829" opacity="0.3"/>
<rect x="10" y="36" width="100" height="4" fill="#0B1829" opacity="0.3"/>
<rect x="10" y="46" width="130" height="4" fill="#0B1829" opacity="0.3"/>
<text x="10" y="76" font-family="ui-monospace,monospace" font-size="9" fill="#0B1829" font-weight="500" opacity="0.6">FRAGMENTED</text>
</g>

<g opacity="0.55">
<path d="M 280 360 Q 320 380 350 410" stroke="#fff" stroke-width="2" fill="none" stroke-linecap="round"/>
<path d="M 240 510 Q 290 530 320 560" stroke="#fff" stroke-width="2" fill="none" stroke-linecap="round"/>
<path d="M 200 660 Q 230 685 270 700" stroke="#fff" stroke-width="2" fill="none" stroke-linecap="round"/>
</g>

<g opacity="0.4">
<circle cx="500" cy="350" r="2" fill="#7a4f8c"/>
<circle cx="540" cy="380" r="3" fill="#7a4f8c"/>
<circle cx="520" cy="420" r="2" fill="#7a4f8c"/>
<circle cx="560" cy="460" r="2.5" fill="#7a4f8c"/>
<circle cx="500" cy="500" r="2" fill="#7a4f8c"/>
</g>

<g>
<line x1="180" y1="900" x2="1320" y2="280" stroke="url(#arrowGrad)" stroke-width="44" stroke-linecap="round" opacity="0.18"/>
<line x1="180" y1="900" x2="1320" y2="280" stroke="url(#arrowGrad)" stroke-width="22" stroke-linecap="round"/>
<polygon points="1320,280 1280,318 1290,295 1265,275 1300,270" fill="#f0a080" opacity="0.4"/>
<polygon points="1340,268 1295,310 1305,285 1278,265 1318,258" fill="#e87a5d"/>

<g transform="translate(620,640) rotate(-29)">
<text x="0" y="0" font-family="ui-monospace,monospace" font-size="32" font-weight="700" fill="#0B1829" letter-spacing="6">DATA SUBSTRATE</text>
</g>
<g transform="translate(618,638) rotate(-29)">
<text x="0" y="0" font-family="ui-monospace,monospace" font-size="32" font-weight="700" fill="#fff" letter-spacing="6">DATA SUBSTRATE</text>
</g>
</g>

<g>
<rect x="820" y="510" width="500" height="380" fill="#20B2AA" opacity="0.18" rx="3"/>
<rect x="820" y="510" width="500" height="380" fill="none" stroke="#20B2AA" stroke-width="2" rx="3"/>

<g>
<rect x="850" y="540" width="340" height="280" fill="#0a0a0a"/>
<rect x="850" y="540" width="340" height="280" fill="none" stroke="#20B2AA" stroke-width="1.5"/>

<g clip-path="url(#ctClip)">
<rect x="850" y="540" width="340" height="280" fill="#0a0a0a"/>
<ellipse cx="1020" cy="680" rx="155" ry="125" fill="#1a1a1a"/>
<ellipse cx="1020" cy="680" rx="145" ry="115" fill="#2a2a2a"/>
<ellipse cx="970" cy="680" rx="55" ry="85" fill="#0a0a0a"/>
<ellipse cx="1075" cy="680" rx="55" ry="85" fill="#0a0a0a"/>
<ellipse cx="970" cy="680" rx="48" ry="78" fill="#3a3a3a" opacity="0.6"/>
<ellipse cx="970" cy="680" rx="40" ry="68" fill="#1a1a1a"/>
<ellipse cx="1075" cy="680" rx="48" ry="78" fill="#3a3a3a" opacity="0.6"/>
<ellipse cx="1075" cy="680" rx="40" ry="68" fill="#1a1a1a"/>
<ellipse cx="1020" cy="660" rx="22" ry="32" fill="#5a5a5a" opacity="0.5"/>
<ellipse cx="1020" cy="660" rx="14" ry="22" fill="#9a9a9a" opacity="0.6"/>
<circle cx="985" cy="650" r="3" fill="#cccccc"/>
<circle cx="1055" cy="665" r="2.5" fill="#cccccc"/>
<circle cx="978" cy="700" r="2" fill="#aaaaaa"/>
<circle cx="1060" cy="710" r="2" fill="#aaaaaa"/>
<circle cx="1000" cy="630" r="1.5" fill="#888"/>
<circle cx="1040" cy="635" r="1.5" fill="#888"/>
</g>

<rect x="1090" y="552" width="92" height="22" fill="#e05252"/>
<text x="1098" y="568" font-family="ui-monospace,monospace" font-size="11" fill="#fff" font-weight="700" letter-spacing="1">VERIFIED BIOPSY</text>
<text x="858" y="558" font-family="ui-monospace,monospace" font-size="9" fill="#20B2AA" font-weight="500" letter-spacing="1">DICOM • CT • LUNG</text>
<text x="858" y="810" font-family="ui-monospace,monospace" font-size="9" fill="#20B2AA" opacity="0.7">[1] [3]</text>
<text x="1140" y="810" font-family="ui-monospace,monospace" font-size="9" fill="#20B2AA" opacity="0.7">[1] [4] [5]</text>
</g>

<g transform="translate(1230,540)">
<circle cx="40" cy="40" r="34" fill="none" stroke="#20B2AA" stroke-width="2"/>
<path d="M 28 40 L 36 48 L 54 30" stroke="#20B2AA" stroke-width="3" fill="none" stroke-linecap="round" stroke-linejoin="round"/>
<text x="-12" y="100" font-family="ui-monospace,monospace" font-size="13" fill="#fff" font-weight="700" letter-spacing="1">RADIOLOGY</text>
<text x="-12" y="118" font-family="ui-monospace,monospace" font-size="11" fill="#20B2AA" letter-spacing="1">1,104 FDA</text>

<g transform="translate(0,160)">
<g transform="translate(40,80)">
<path d="M 0,-50 Q 35,-35 50,0 Q 35,35 0,50 Q -35,35 -50,0 Q -35,-35 0,-50 Z" fill="#7a4f8c" opacity="0.6"/>
<path d="M 0,-40 Q 28,-28 40,0 Q 28,28 0,40 Q -28,28 -40,0 Q -28,-28 0,-40 Z" fill="#5a3f7c" opacity="0.7"/>
<g>
<circle cx="-18" cy="-12" r="7" fill="#20B2AA"/>
<circle cx="14" cy="-18" r="6" fill="#e87a5d"/>
<circle cx="20" cy="10" r="7" fill="#5db8d8"/>
<circle cx="-8" cy="20" r="6" fill="#f0c060"/>
<circle cx="-22" cy="6" r="5" fill="#a890d0"/>
<circle cx="6" cy="-2" r="5" fill="#7adcc4"/>
</g>
<path d="M -18,-12 L 14,-18 L 20,10 L -8,20 L -22,6 L 6,-2 Z" fill="none" stroke="#fff" stroke-width="0.8" opacity="0.4"/>
</g>
<text x="-22" y="170" font-family="ui-monospace,monospace" font-size="13" fill="#e87a5d" font-weight="700" letter-spacing="1">ALPHAFOLD 3</text>
<text x="-32" y="188" font-family="ui-monospace,monospace" font-size="11" fill="#fff" font-weight="700" letter-spacing="1">STRUCTURE LOCKED</text>
</g>
</g>
</g>

<g transform="translate(880,180)">
<text x="0" y="0" font-family="Georgia,serif" font-size="78" font-weight="700" fill="#fff" letter-spacing="-1">INTELLIGENCE</text>
<text x="0" y="80" font-family="Georgia,serif" font-size="78" font-weight="700" fill="#fff" letter-spacing="-1">FIRST</text>
<text x="0" y="138" font-family="ui-sans-serif,system-ui,sans-serif" font-size="22" font-weight="400" fill="#20B2AA" letter-spacing="0.5">AI is only as good as</text>
<text x="0" y="168" font-family="ui-sans-serif,system-ui,sans-serif" font-size="22" font-weight="400" fill="#20B2AA" letter-spacing="0.5">the data it's built on</text>
</g>

<g transform="translate(80,990)">
<text x="0" y="0" font-family="ui-monospace,monospace" font-size="14" fill="#8892a4" font-weight="500" letter-spacing="2">POPULATION HEALTH</text>
<text x="220" y="0" font-family="ui-monospace,monospace" font-size="14" fill="#5a6478" font-weight="500" letter-spacing="2">|</text>
<text x="240" y="0" font-family="ui-monospace,monospace" font-size="14" fill="#8892a4" font-weight="500" letter-spacing="2">FRAGMENTED</text>
</g>

<g transform="translate(900,990)">
<text x="0" y="0" font-family="ui-monospace,monospace" font-size="14" fill="#20B2AA" font-weight="500" letter-spacing="2">RADIOLOGY + PHARMA</text>
<text x="252" y="0" font-family="ui-monospace,monospace" font-size="14" fill="#5a6478" font-weight="500" letter-spacing="2">|</text>
<text x="272" y="0" font-family="ui-monospace,monospace" font-size="14" fill="#20B2AA" font-weight="500" letter-spacing="2">STRUCTURED + VERIFIABLE</text>
</g>
</svg>
